<?xml version="1.0" encoding="UTF-8"?>
<svg version="1.1" xmlns="http://www.w3.org/2000/svg" width="75" height="80">
<path d="M0 0 C1.65 0 3.3 0 5 0 C5.14695313 0.88300781 5.29390625 1.76601563 5.4453125 2.67578125 C7.36580422 12.95151568 10.24226379 23.07467859 18.875 29.72265625 C24.768036 33.26497752 31.22003727 35.84517118 38 37 C38.33 37.99 38.66 38.98 39 40 C36.66655289 42.33344711 34.99233366 42.79220277 31.875 43.8125 C23.19056966 46.90760376 16.06606542 51.06728293 11 59 C8.0326839 65.79813688 6.00616982 72.87401216 4 80 C2.68 80 1.36 80 0 80 C-0.21914063 79.04480469 -0.43828125 78.08960937 -0.6640625 77.10546875 C-3.67646399 64.5556966 -7.11426195 55.02626917 -18.3203125 47.5859375 C-23.33297755 44.61925819 -28.44571116 42.76111597 -34 41 C-34 40.01 -34 39.02 -34 38 C-32.741875 37.62875 -31.48375 37.2575 -30.1875 36.875 C-19.56236858 33.27751456 -10.76543173 28.36016388 -5.53515625 18.13671875 C-2.93170401 12.19782914 -1.16784428 6.37005972 0 0 Z " fill="#F8C405" transform="translate(35,0)"/>
<path d="M0 0 C0.33 0 0.66 0 1 0 C0 7.42857143 0 7.42857143 -1 11 C-1.66 11 -2.32 11 -3 11 C-3.103125 11.763125 -3.20625 12.52625 -3.3125 13.3125 C-4.05539884 16.21655911 -4.56993983 17.28995766 -7 19 C-8.32 19 -9.64 19 -11 19 C-11.66 20.32 -12.32 21.64 -13 23 C-13.99 23 -14.98 23 -16 23 C-16.33 23.66 -16.66 24.32 -17 25 C-19.06640625 25.6328125 -19.06640625 25.6328125 -21.5625 26.125 C-22.38878906 26.29257812 -23.21507812 26.46015625 -24.06640625 26.6328125 C-24.70449219 26.75398438 -25.34257812 26.87515625 -26 27 C-26 27.33 -26 27.66 -26 28 C-24.329375 28.433125 -24.329375 28.433125 -22.625 28.875 C-19 30 -19 30 -17 32 C-14.42938689 32.64767793 -14.42938689 32.64767793 -12 33 C-12 33.66 -12 34.32 -12 35 C-11.01 35 -10.02 35 -9 35 C-8.67 36.32 -8.34 37.64 -8 39 C-11.55768332 39 -12.27516005 38.2666229 -15.0625 36.1875 C-19.21763663 33.28571606 -23.0174707 31.86922035 -27.93359375 30.73828125 C-30 30 -30 30 -32 27 C-29.71765206 24.71765206 -28.57700677 24.50951433 -25.5 23.75 C-16.77431531 21.22812581 -8.98833433 16.7630953 -4 9 C-2.49659664 6.05896718 -1.18775686 3.08118104 0 0 Z " fill="#D9B531" transform="translate(32,12)"/>
<path d="M0 0 C0.99 0 1.98 0 3 0 C3.66 2.64 4.32 5.28 5 8 C5.99 8 6.98 8 8 8 C8 7.01 8 6.02 8 5 C9.65 4.34 11.3 3.68 13 3 C11.68 8.28 10.36 13.56 9 19 C7.68 19 6.36 19 5 19 C4.35377959 16.58343624 3.70800996 14.16675354 3.0625 11.75 C2.88009766 11.06808594 2.69769531 10.38617188 2.50976562 9.68359375 C1.64946879 6.46139106 0.79316866 3.23946777 0 0 Z " fill="#D2A819" transform="translate(30,61)"/>
<path d="M0 0 C0.73605469 0.27714844 1.47210938 0.55429687 2.23046875 0.83984375 C3.20628906 1.20207031 4.18210937 1.56429687 5.1875 1.9375 C6.63189453 2.47697266 6.63189453 2.47697266 8.10546875 3.02734375 C10.7368278 3.91156562 13.26894908 4.52568586 16 5 C16.33 5.99 16.66 6.98 17 8 C14.67398774 10.32601226 12.97497706 10.83016094 9.875 11.875 C5.01238919 13.57915609 0.55262087 15.59484181 -4 18 C-4 17.01 -4 16.02 -4 15 C-2.02 14.34 -0.04 13.68 2 13 C2 12.34 2 11.68 2 11 C2.99 11 3.98 11 5 11 C5 10.01 5 9.02 5 8 C5.99 7.34 6.98 6.68 8 6 C5.36 4.68 2.72 3.36 0 2 C0 1.34 0 0.68 0 0 Z " fill="#E1BC2D" transform="translate(57,32)"/>
<path d="M0 0 C0.33 0 0.66 0 1 0 C0 7.42857143 0 7.42857143 -1 11 C-1.66 11 -2.32 11 -3 11 C-3.103125 11.763125 -3.20625 12.52625 -3.3125 13.3125 C-4.05539884 16.21655911 -4.56993983 17.28995766 -7 19 C-8.32 19 -9.64 19 -11 19 C-11.66 20.32 -12.32 21.64 -13 23 C-13.99 23 -14.98 23 -16 23 C-16.33 23.66 -16.66 24.32 -17 25 C-17.99 24.67 -18.98 24.34 -20 24 C-20 23.34 -20 22.68 -20 22 C-18.49705948 21.04061307 -16.94499493 20.15770376 -15.375 19.3125 C-7.13815708 14.496041 -3.39361837 8.80344531 0 0 Z " fill="#C9A22C" transform="translate(32,12)"/>
<path d="M0 0 C1.65 0 3.3 0 5 0 C5.33 3.63 5.66 7.26 6 11 C5.34 10.34 4.68 9.68 4 9 C0.87802522 10.3089572 0.87802522 10.3089572 -1 13 C-2.07310858 9.72814447 -1.89263102 7.57052408 -1.0625 4.25 C-0.86785156 3.45078125 -0.67320313 2.6515625 -0.47265625 1.828125 C-0.31667969 1.22484375 -0.16070312 0.6215625 0 0 Z " fill="#EBB214" transform="translate(35,0)"/>
<path d="M0 0 C-0.93441535 1.27310312 -1.87267111 2.543388 -2.8125 3.8125 C-3.33457031 4.52019531 -3.85664062 5.22789063 -4.39453125 5.95703125 C-5.83128877 7.78531393 -7.31815763 9.39896688 -9 11 C-9 9.35 -9 7.7 -9 6 C-8.34 6 -7.68 6 -7 6 C-7 4.35 -7 2.7 -7 1 C-4.53721199 -0.231394 -2.7204945 -0.07159196 0 0 Z " fill="#DAA91C" transform="translate(53,50)"/>
<path d="M0 0 C2.64 0.66 5.28 1.32 8 2 C8 2.66 8 3.32 8 4 C8.99 4 9.98 4 11 4 C11.33 5.32 11.66 6.64 12 8 C8.40941456 8 7.25212529 7.10368497 4.3125 5.125 C3.50425781 4.59132813 2.69601563 4.05765625 1.86328125 3.5078125 C1.24839844 3.01023438 0.63351562 2.51265625 0 2 C0 1.34 0 0.68 0 0 Z " fill="#BC9324" transform="translate(12,43)"/>
<path d="M0 0 C-0.99 3.96 -1.98 7.92 -3 12 C-3.33 12 -3.66 12 -4 12 C-4.33 8.7 -4.66 5.4 -5 2 C-2 0 -2 0 0 0 Z " fill="#D8991E" transform="translate(43,64)"/>
<path d="M0 0 C0.33 0 0.66 0 1 0 C0.68554487 2.33595238 0.3496418 4.66905466 0 7 C-0.0825 7.721875 -0.165 8.44375 -0.25 9.1875 C-1.40978224 11.99030708 -3.5885221 13.26868254 -6 15 C-6.66 14.67 -7.32 14.34 -8 14 C-7.59007813 13.40832031 -7.18015625 12.81664062 -6.7578125 12.20703125 C-5.94957031 11.02173828 -5.94957031 11.02173828 -5.125 9.8125 C-4.59132813 9.03519531 -4.05765625 8.25789063 -3.5078125 7.45703125 C-2.01984561 5.0323391 -0.97571922 2.6666501 0 0 Z " fill="#8F7623" transform="translate(32,12)"/>
<path d="M0 0 C2.77398263 3.46747828 4.95912413 7.06402511 7 11 C6.67 11.66 6.34 12.32 6 13 C5.01 12.67 4.02 12.34 3 12 C3 11.01 3 10.02 3 9 C2.34 9 1.68 9 1 9 C0.67 6.03 0.34 3.06 0 0 Z " fill="#D5A42A" transform="translate(41,12)"/>
<path d="M0 0 C0.99 0 1.98 0 3 0 C4.97094808 4.92737019 5.1799928 8.78020872 5 14 C3.38274466 10.99049877 2.32417377 8.02896392 1.375 4.75 C0.98441406 3.41195312 0.98441406 3.41195312 0.5859375 2.046875 C0.39257812 1.37140625 0.19921875 0.6959375 0 0 Z " fill="#86711A" transform="translate(30,61)"/>
<path d="M0 0 C0.66 0 1.32 0 2 0 C2.16682272 4.92127034 2.24828052 8.50343896 0 13 C-0.66 12.67 -1.32 12.34 -2 12 C-1.34 8.04 -0.68 4.08 0 0 Z " fill="#9D7C1C" transform="translate(35,0)"/>
<path d="M0 0 C0.66 0 1.32 0 2 0 C2 0.99 2 1.98 2 3 C2.66 3 3.32 3 4 3 C4 3.99 4 4.98 4 6 C4.66 6.33 5.32 6.66 6 7 C5.01 8.485 5.01 8.485 4 10 C2.35 7.03 0.7 4.06 -1 1 C-0.67 0.67 -0.34 0.34 0 0 Z " fill="#A68918" transform="translate(25,51)"/>
<path d="M0 0 C0.33 0.66 0.66 1.32 1 2 C-0.8125 4.5 -0.8125 4.5 -3 7 C-3.99 7 -4.98 7 -6 7 C-5.8125 5.1875 -5.8125 5.1875 -5 3 C-2.4375 1.25 -2.4375 1.25 0 0 Z " fill="#E5B41F" transform="translate(28,24)"/>
<path d="M0 0 C2.64 1.98 5.28 3.96 8 6 C4.37673261 7.2077558 3.35853631 6.54311128 0 5 C0 3.35 0 1.7 0 0 Z " fill="#DCB235" transform="translate(48,25)"/>
<path d="" fill="#FFFFFF" transform="translate(0,0)"/>
</svg>
